# xmcd
#
# Track frame offsets:
#	150
#	17287
#	31364
#	44523
#	55866
#	78156
#	93328
#	105081
#	117858
#	127616
#	151131
#	165060
#	177487
#	191250
#
# Disc length: 2818 seconds
#
# Revision: 0
# Processed by: cddbd v1.5.2PL0 Copyright (c) Steve Scherf et al.
# Submitted via: EZCDAudioConverter 4.0.5.1
#
DISCID=8c0b000e
DTITLE=Herman van Veen - Sprakeloos - Vir Die Naamlose Vrou
DYEAR=2006
DGENRE=Chanson
TTITLE0=Anders Anders
TTITLE1=Elke Trein
TTITLE2=Die Pa's
TTITLE3=En Dat Jy Nog Klein Is
TTITLE4=Sarah
TTITLE5=Die Oe Van My Moeder
TTITLE6=Nie Alleen
TTITLE7=Kiss (instrumental)
TTITLE8=Ik Hou Van Jou
TTITLE9=Elizabeth
TTITLE10=Soentjie
TTITLE11=Boem Boem
TTITLE12=Sprakeloos
TTITLE13=Vir Marie Louise
EXTD=
EXTT0=
EXTT1=
EXTT2=
EXTT3=
EXTT4=
EXTT5=
EXTT6=
EXTT7=
EXTT8=
EXTT9=
EXTT10=
EXTT11=
EXTT12=
EXTT13=
PLAYORDER=
